# xmcd
#
# Track frame offsets: 
#        150
#        20587
#        40762
#        58012
#        79350
#        100665
#        136372
#        153997
#        170750
#        186875
#        208677
#        224190
#
# Disc length: 3397 seconds
#
# Revision: 1
# Processed by: cddbd v1.5.2PL0 Copyright (c) Steve Scherf et al.
# Submitted via: ExactAudioCopy v1.3
#
DISCID=b00d430c
DTITLE=Preston Shannon - Midnight in Memphis
DYEAR=1996
DGENRE=Blues
TTITLE0='Round Midnight
TTITLE1=Baby I Will
TTITLE2=Size 12 Shoes
TTITLE3=Nobody's Fool
TTITLE4=The Feeling is Gone
TTITLE5=The Clock
TTITLE6=The Streets Will Love You to Death
TTITLE7=Honky Tonk
TTITLE8=Take Your Time
TTITLE9=Can't Lose What You Never Had
TTITLE10=Handee Man
TTITLE11=Midnight in Memphis
EXTD=
EXTT0=
EXTT1=
EXTT2=
EXTT3=
EXTT4=
EXTT5=
EXTT6=
EXTT7=
EXTT8=
EXTT9=
EXTT10=
EXTT11=
PLAYORDER=
